<svg width="38" height="30" viewBox="0 0 38 30" fill="none" xmlns="http://www.w3.org/2000/svg">
<path d="M37.1667 12.8167L34.7667 5.61667C34.3001 4.25 33.0334 3.33333 31.6001 3.33333H30.6667V1.66667C30.6667 0.75 29.9167 0 29.0001 0H27.3334C26.4167 0 25.6667 0.75 25.6667 1.66667V3.33333H22.3334C20.5001 3.33333 19.0001 4.83333 19.0001 6.66667V13.3333H4.00008C2.16675 13.3333 0.666748 14.8333 0.666748 16.6667V21.6667C0.666748 23.5 2.16675 25 4.00008 25H5.66675C5.66675 27.7667 7.90008 30 10.6667 30C13.4334 30 15.6667 27.7667 15.6667 25H22.3334C22.3334 27.7667 24.5667 30 27.3334 30C30.1001 30 32.3334 27.7667 32.3334 25H34.0001C35.8334 25 37.3334 23.5 37.3334 21.6667V13.8667C37.3334 13.5167 37.2834 13.1667 37.1667 12.8167ZM10.6667 26.6667C9.75008 26.6667 9.00008 25.9167 9.00008 25C9.00008 24.0833 9.75008 23.3333 10.6667 23.3333C11.5834 23.3333 12.3334 24.0833 12.3334 25C12.3334 25.9167 11.5834 26.6667 10.6667 26.6667ZM27.3334 26.6667C26.4167 26.6667 25.6667 25.9167 25.6667 25C25.6667 24.0833 26.4167 23.3333 27.3334 23.3333C28.2501 23.3333 29.0001 24.0833 29.0001 25C29.0001 25.9167 28.2501 26.6667 27.3334 26.6667ZM22.3334 13.3333V6.66667H31.6001L33.8167 13.3333H22.3334Z" fill="black" fill-opacity="0.2"/>
</svg>
