<svg width="20" height="20" viewBox="0 0 17 18" fill="none" xmlns="http://www.w3.org/2000/svg">
<path d="M10.168 9.00029L6.83197 5.66829V8.16829H0.167969V9.83229H6.83197V12.3323L10.168 9.00029ZM16.832 9.00029C16.8311 10.9905 16.1179 12.9147 14.8215 14.4248C13.525 15.9349 11.7309 16.931 9.76371 17.2331C7.79651 17.5352 5.78617 17.1232 4.09637 16.0717C2.40658 15.0202 1.14893 13.3986 0.550969 11.5003H2.32397C2.90481 12.9339 3.96597 14.1209 5.32573 14.8582C6.68549 15.5954 8.25927 15.837 9.77756 15.5416C11.2959 15.2461 12.6642 14.4321 13.6483 13.2387C14.6324 12.0454 15.1711 10.5471 15.172 9.00029C15.1711 7.45352 14.6324 5.95518 13.6483 4.76185C12.6642 3.56852 11.2959 2.75444 9.77756 2.459C8.25927 2.16357 6.68549 2.40516 5.32573 3.14242C3.96597 3.87967 2.90481 5.06672 2.32397 6.50029H0.550969C1.14893 4.60199 2.40658 2.9804 4.09637 1.92889C5.78617 0.877375 7.79651 0.465385 9.76371 0.767454C11.7309 1.06952 13.525 2.0657 14.8215 3.57576C16.1179 5.08582 16.8311 7.01004 16.832 9.00029Z" fill="white"/>
</svg>
