<svg width="28" height="32" viewBox="0 0 28 32" fill="none" xmlns="http://www.w3.org/2000/svg">
<path d="M21.2499 3.37467H16.6124C15.9999 1.68301 14.3958 0.458008 12.4999 0.458008C10.6041 0.458008 8.99992 1.68301 8.38742 3.37467H3.74992C2.14575 3.37467 0.833252 4.68717 0.833252 6.29134V28.1663C0.833252 29.7705 2.14575 31.083 3.74992 31.083H12.6603C11.7999 30.2518 11.0999 29.2601 10.5895 28.1663H3.74992V6.29134H6.66659V7.74967C6.66659 9.35384 7.97909 10.6663 9.58325 10.6663H15.4166C17.0208 10.6663 18.3333 9.35384 18.3333 7.74967V6.29134H21.2499V13.6997C22.2853 13.8455 23.2624 14.1518 24.1666 14.5747V6.29134C24.1666 4.68717 22.8541 3.37467 21.2499 3.37467ZM12.4999 6.29134C11.6978 6.29134 11.0416 5.63509 11.0416 4.83301C11.0416 4.03092 11.6978 3.37467 12.4999 3.37467C13.302 3.37467 13.9583 4.03092 13.9583 4.83301C13.9583 5.63509 13.302 6.29134 12.4999 6.29134ZM19.7916 16.4997C15.7666 16.4997 12.4999 19.7663 12.4999 23.7913C12.4999 27.8163 15.7666 31.083 19.7916 31.083C23.8166 31.083 27.0833 27.8163 27.0833 23.7913C27.0833 19.7663 23.8166 16.4997 19.7916 16.4997ZM21.6728 26.708L19.2666 24.3018C19.1353 24.1705 19.0478 23.9809 19.0478 23.7913V20.1601C19.0478 19.7518 19.3687 19.4309 19.777 19.4309C20.1853 19.4309 20.5062 19.7518 20.5062 20.1601V23.4997L22.6937 25.6872C22.9853 25.9788 22.9853 26.4309 22.6937 26.7226C22.4166 26.9997 21.9645 26.9997 21.6728 26.708Z" fill="black" fill-opacity="0.54"/>
</svg>
