<svg width="40" height="67" viewBox="0 0 40 67" fill="none" xmlns="http://www.w3.org/2000/svg">
<path d="M8.33333 8.33333H18.3333C19.25 8.33333 20 7.58333 20 6.66667C20 5.75 19.25 5 18.3333 5H8.33333C6.5 5 5 6.5 5 8.33333V31.6667C5 33.5 6.5 35 8.33333 35H18.3333C19.25 35 20 34.25 20 33.3333C20 32.4167 19.25 31.6667 18.3333 31.6667H8.33333V8.33333Z" fill="white"/>
<path d="M34.4167 19.4167L29.7667 14.7667C29.2333 14.2333 28.3333 14.6 28.3333 15.35V18.3333H16.6667C15.75 18.3333 15 19.0833 15 20C15 20.9167 15.75 21.6667 16.6667 21.6667H28.3333V24.65C28.3333 25.4 29.2333 25.7667 29.75 25.2333L34.4 20.5833C34.7333 20.2667 34.7333 19.7333 34.4167 19.4167Z" fill="white"/>
<path d="M10.2681 51.4058H11.874C11.8418 51.9321 11.6968 52.3994 11.439 52.8076C11.1847 53.2158 10.8285 53.5345 10.3701 53.7637C9.91536 53.9928 9.36751 54.1074 8.72656 54.1074C8.22526 54.1074 7.77588 54.0215 7.37842 53.8496C6.98096 53.6742 6.64079 53.4235 6.35791 53.0977C6.07861 52.7718 5.86556 52.3779 5.71875 51.916C5.57194 51.4541 5.49854 50.9367 5.49854 50.3638V49.8213C5.49854 49.2484 5.57373 48.731 5.72412 48.269C5.87809 47.8035 6.09652 47.4079 6.37939 47.082C6.66585 46.7562 7.00781 46.5055 7.40527 46.3301C7.80273 46.1546 8.24674 46.0669 8.7373 46.0669C9.389 46.0669 9.93864 46.1851 10.3862 46.4214C10.8374 46.6577 11.1865 46.9836 11.4336 47.3989C11.6842 47.8143 11.8346 48.2869 11.8848 48.8169H10.2734C10.2555 48.5018 10.1929 48.235 10.0854 48.0166C9.97803 47.7946 9.8151 47.6281 9.59668 47.5171C9.38184 47.4025 9.09538 47.3452 8.7373 47.3452C8.46875 47.3452 8.23421 47.3953 8.03369 47.4956C7.83317 47.5959 7.66488 47.748 7.52881 47.9521C7.39274 48.1562 7.29069 48.4141 7.22266 48.7256C7.1582 49.0335 7.12598 49.3952 7.12598 49.8105V50.3638C7.12598 50.7684 7.15641 51.1247 7.21729 51.4326C7.27816 51.737 7.37126 51.9948 7.49658 52.2061C7.62549 52.4137 7.7902 52.5713 7.99072 52.6787C8.19482 52.7826 8.4401 52.8345 8.72656 52.8345C9.06315 52.8345 9.34066 52.7808 9.55908 52.6733C9.77751 52.5659 9.94401 52.4066 10.0586 52.1953C10.1768 51.984 10.2466 51.7209 10.2681 51.4058ZM15.5103 54.1074C15.0591 54.1074 14.6545 54.0358 14.2964 53.8926C13.9383 53.7458 13.634 53.5435 13.3833 53.2856C13.1362 53.0278 12.9465 52.7288 12.814 52.3887C12.6815 52.0449 12.6152 51.6797 12.6152 51.293V51.0781C12.6152 50.6377 12.6779 50.2349 12.8032 49.8696C12.9285 49.5044 13.1076 49.1875 13.3403 48.9189C13.5767 48.6504 13.8631 48.4445 14.1997 48.3013C14.5363 48.1545 14.9159 48.0811 15.3384 48.0811C15.7502 48.0811 16.1154 48.1491 16.4341 48.2852C16.7528 48.4212 17.0195 48.6146 17.2344 48.8652C17.4528 49.1159 17.6175 49.4167 17.7285 49.7676C17.8395 50.1149 17.895 50.5016 17.895 50.9277V51.5723H13.2759V50.541H16.375V50.4229C16.375 50.208 16.3356 50.0164 16.2568 49.8481C16.1816 49.6763 16.0671 49.5402 15.9131 49.4399C15.7591 49.3397 15.5622 49.2896 15.3223 49.2896C15.1182 49.2896 14.9427 49.3343 14.7959 49.4238C14.6491 49.5133 14.5291 49.6387 14.436 49.7998C14.3465 49.9609 14.2785 50.1507 14.2319 50.3691C14.189 50.584 14.1675 50.8203 14.1675 51.0781V51.293C14.1675 51.5257 14.1997 51.7406 14.2642 51.9375C14.3322 52.1344 14.4271 52.3045 14.5488 52.4478C14.6742 52.591 14.8245 52.702 15 52.7808C15.179 52.8595 15.3813 52.8989 15.6069 52.8989C15.8862 52.8989 16.1458 52.8452 16.3857 52.7378C16.6292 52.6268 16.8387 52.4603 17.0142 52.2383L17.7661 53.0547C17.6444 53.2301 17.4779 53.3984 17.2666 53.5596C17.0589 53.7207 16.8083 53.8532 16.5146 53.957C16.221 54.0573 15.8862 54.1074 15.5103 54.1074ZM20.3228 49.4561V54H18.7759V48.1885H20.2314L20.3228 49.4561ZM22.0737 48.1509L22.0469 49.585C21.9717 49.5742 21.8804 49.5653 21.7729 49.5581C21.6691 49.5474 21.5742 49.542 21.4883 49.542C21.2699 49.542 21.0801 49.5706 20.9189 49.6279C20.7614 49.6816 20.6289 49.7622 20.5215 49.8696C20.4176 49.9771 20.3389 50.1077 20.2852 50.2617C20.235 50.4157 20.2064 50.5911 20.1992 50.7881L19.8877 50.6914C19.8877 50.3154 19.9253 49.9699 20.0005 49.6548C20.0757 49.3361 20.1849 49.0586 20.3281 48.8223C20.4749 48.5859 20.654 48.4033 20.8652 48.2744C21.0765 48.1455 21.3182 48.0811 21.5903 48.0811C21.6763 48.0811 21.764 48.0882 21.8535 48.1025C21.943 48.1133 22.0164 48.1294 22.0737 48.1509ZM24.3511 49.4561V54H22.8042V48.1885H24.2598L24.3511 49.4561ZM26.1021 48.1509L26.0752 49.585C26 49.5742 25.9087 49.5653 25.8013 49.5581C25.6974 49.5474 25.6025 49.542 25.5166 49.542C25.2982 49.542 25.1084 49.5706 24.9473 49.6279C24.7897 49.6816 24.6572 49.7622 24.5498 49.8696C24.446 49.9771 24.3672 50.1077 24.3135 50.2617C24.2633 50.4157 24.2347 50.5911 24.2275 50.7881L23.916 50.6914C23.916 50.3154 23.9536 49.9699 24.0288 49.6548C24.104 49.3361 24.2132 49.0586 24.3564 48.8223C24.5033 48.5859 24.6823 48.4033 24.8936 48.2744C25.1048 48.1455 25.3465 48.0811 25.6187 48.0811C25.7046 48.0811 25.7923 48.0882 25.8818 48.1025C25.9714 48.1133 26.0448 48.1294 26.1021 48.1509ZM29.7866 52.6895V50.1006C29.7866 49.9144 29.7562 49.755 29.6953 49.6226C29.6344 49.4865 29.5396 49.3809 29.4106 49.3057C29.2853 49.2305 29.1224 49.1929 28.9219 49.1929C28.75 49.1929 28.6014 49.2233 28.4761 49.2842C28.3507 49.3415 28.2541 49.4256 28.186 49.5366C28.118 49.644 28.084 49.7712 28.084 49.918H26.5371C26.5371 49.6709 26.5944 49.4364 26.709 49.2144C26.8236 48.9924 26.9901 48.7972 27.2085 48.6289C27.4269 48.457 27.6865 48.3228 27.9873 48.2261C28.2917 48.1294 28.6318 48.0811 29.0078 48.0811C29.459 48.0811 29.86 48.1562 30.2109 48.3066C30.5618 48.457 30.8376 48.6826 31.0381 48.9834C31.2422 49.2842 31.3442 49.6602 31.3442 50.1113V52.5981C31.3442 52.9168 31.3639 53.1782 31.4033 53.3823C31.4427 53.5828 31.5 53.7583 31.5752 53.9087V54H30.0122C29.937 53.8424 29.8797 53.6455 29.8403 53.4092C29.8045 53.1693 29.7866 52.9294 29.7866 52.6895ZM29.9907 50.4604L30.0015 51.3359H29.1367C28.9326 51.3359 28.7554 51.3592 28.605 51.4058C28.4546 51.4523 28.3311 51.5186 28.2344 51.6045C28.1377 51.6868 28.0661 51.7835 28.0195 51.8945C27.9766 52.0055 27.9551 52.1273 27.9551 52.2598C27.9551 52.3923 27.9855 52.5122 28.0464 52.6196C28.1073 52.7235 28.195 52.8058 28.3096 52.8667C28.4242 52.924 28.5584 52.9526 28.7124 52.9526C28.9451 52.9526 29.1475 52.9061 29.3193 52.813C29.4912 52.7199 29.6237 52.6053 29.7168 52.4692C29.8135 52.3332 29.8636 52.2043 29.8672 52.0825L30.2754 52.7378C30.2181 52.8846 30.1393 53.0368 30.0391 53.1943C29.9424 53.3519 29.8188 53.5005 29.6685 53.6401C29.5181 53.7762 29.3372 53.889 29.126 53.9785C28.9147 54.0645 28.6641 54.1074 28.374 54.1074C28.0052 54.1074 27.6704 54.034 27.3696 53.8872C27.0724 53.7368 26.8361 53.5309 26.6606 53.2695C26.4888 53.0046 26.4028 52.7038 26.4028 52.3672C26.4028 52.0628 26.4601 51.7925 26.5747 51.5562C26.6893 51.3198 26.8576 51.1211 27.0796 50.96C27.3052 50.7952 27.5863 50.6717 27.9229 50.5894C28.2594 50.5034 28.6497 50.4604 29.0938 50.4604H29.9907ZM34.0835 49.4561V54H32.5366V48.1885H33.9922L34.0835 49.4561ZM35.8345 48.1509L35.8076 49.585C35.7324 49.5742 35.6411 49.5653 35.5337 49.5581C35.4299 49.5474 35.335 49.542 35.249 49.542C35.0306 49.542 34.8408 49.5706 34.6797 49.6279C34.5221 49.6816 34.3896 49.7622 34.2822 49.8696C34.1784 49.9771 34.0996 50.1077 34.0459 50.2617C33.9958 50.4157 33.9671 50.5911 33.96 50.7881L33.6484 50.6914C33.6484 50.3154 33.686 49.9699 33.7612 49.6548C33.8364 49.3361 33.9456 49.0586 34.0889 48.8223C34.2357 48.5859 34.4147 48.4033 34.626 48.2744C34.8372 48.1455 35.0789 48.0811 35.3511 48.0811C35.437 48.0811 35.5247 48.0882 35.6143 48.1025C35.7038 48.1133 35.7772 48.1294 35.8345 48.1509ZM7.97998 64.394C7.97998 64.283 7.94775 64.1828 7.8833 64.0933C7.81885 64.0037 7.69889 63.9214 7.52344 63.8462C7.35156 63.7674 7.1027 63.6958 6.77686 63.6313C6.48324 63.5669 6.20931 63.4863 5.95508 63.3896C5.70443 63.2894 5.486 63.1694 5.2998 63.0298C5.11719 62.8901 4.97396 62.7254 4.87012 62.5356C4.76628 62.3423 4.71436 62.1221 4.71436 61.875C4.71436 61.6315 4.76628 61.4023 4.87012 61.1875C4.97754 60.9727 5.12972 60.7829 5.32666 60.6182C5.52718 60.4499 5.77067 60.3192 6.05713 60.2261C6.34717 60.1294 6.67301 60.0811 7.03467 60.0811C7.53955 60.0811 7.97282 60.1616 8.33447 60.3228C8.69971 60.4839 8.979 60.7059 9.17236 60.9888C9.3693 61.2681 9.46777 61.5868 9.46777 61.9448H7.9209C7.9209 61.7944 7.88867 61.6602 7.82422 61.542C7.76335 61.4202 7.66667 61.3254 7.53418 61.2573C7.40527 61.1857 7.23698 61.1499 7.0293 61.1499C6.85742 61.1499 6.70882 61.1803 6.5835 61.2412C6.45817 61.2985 6.36149 61.3773 6.29346 61.4775C6.229 61.5742 6.19678 61.6816 6.19678 61.7998C6.19678 61.8893 6.21468 61.9699 6.25049 62.0415C6.28988 62.1095 6.35254 62.1722 6.43848 62.2295C6.52441 62.2868 6.63542 62.3405 6.77148 62.3906C6.91113 62.4372 7.08301 62.4801 7.28711 62.5195C7.70605 62.6055 8.08024 62.7183 8.40967 62.8579C8.7391 62.994 9.00049 63.1802 9.19385 63.4165C9.38721 63.6493 9.48389 63.9554 9.48389 64.335C9.48389 64.5928 9.4266 64.8291 9.31201 65.0439C9.19743 65.2588 9.03271 65.4468 8.81787 65.6079C8.60303 65.7655 8.34521 65.889 8.04443 65.9785C7.74723 66.0645 7.41243 66.1074 7.04004 66.1074C6.49935 66.1074 6.04102 66.0107 5.66504 65.8174C5.29264 65.624 5.00977 65.3787 4.81641 65.0815C4.62663 64.7808 4.53174 64.4728 4.53174 64.1577H5.99805C6.00521 64.369 6.05892 64.5391 6.15918 64.668C6.26302 64.7969 6.39372 64.89 6.55127 64.9473C6.7124 65.0046 6.88607 65.0332 7.07227 65.0332C7.27279 65.0332 7.43929 65.0063 7.57178 64.9526C7.70426 64.8953 7.80452 64.8201 7.87256 64.7271C7.94417 64.6304 7.97998 64.5194 7.97998 64.394ZM13.1631 66.1074C12.7119 66.1074 12.3073 66.0358 11.9492 65.8926C11.5911 65.7458 11.2868 65.5435 11.0361 65.2856C10.7891 65.0278 10.5993 64.7288 10.4668 64.3887C10.3343 64.0449 10.2681 63.6797 10.2681 63.293V63.0781C10.2681 62.6377 10.3307 62.2349 10.4561 61.8696C10.5814 61.5044 10.7604 61.1875 10.9932 60.9189C11.2295 60.6504 11.516 60.4445 11.8525 60.3013C12.1891 60.1545 12.5687 60.0811 12.9912 60.0811C13.403 60.0811 13.7682 60.1491 14.0869 60.2852C14.4056 60.4212 14.6724 60.6146 14.8872 60.8652C15.1056 61.1159 15.2703 61.4167 15.3813 61.7676C15.4924 62.1149 15.5479 62.5016 15.5479 62.9277V63.5723H10.9287V62.541H14.0278V62.4229C14.0278 62.208 13.9884 62.0164 13.9097 61.8481C13.8345 61.6763 13.7199 61.5402 13.5659 61.4399C13.4119 61.3397 13.215 61.2896 12.9751 61.2896C12.771 61.2896 12.5955 61.3343 12.4487 61.4238C12.3019 61.5133 12.182 61.6387 12.0889 61.7998C11.9993 61.9609 11.9313 62.1507 11.8848 62.3691C11.8418 62.584 11.8203 62.8203 11.8203 63.0781V63.293C11.8203 63.5257 11.8525 63.7406 11.917 63.9375C11.985 64.1344 12.0799 64.3045 12.2017 64.4478C12.327 64.591 12.4774 64.702 12.6528 64.7808C12.8319 64.8595 13.0342 64.8989 13.2598 64.8989C13.5391 64.8989 13.7987 64.8452 14.0386 64.7378C14.2821 64.6268 14.4915 64.4603 14.667 64.2383L15.4189 65.0547C15.2972 65.2301 15.1307 65.3984 14.9194 65.5596C14.7118 65.7207 14.4611 65.8532 14.1675 65.957C13.8739 66.0573 13.5391 66.1074 13.1631 66.1074ZM19.5708 64.394C19.5708 64.283 19.5386 64.1828 19.4741 64.0933C19.4097 64.0037 19.2897 63.9214 19.1143 63.8462C18.9424 63.7674 18.6935 63.6958 18.3677 63.6313C18.0741 63.5669 17.8001 63.4863 17.5459 63.3896C17.2952 63.2894 17.0768 63.1694 16.8906 63.0298C16.708 62.8901 16.5648 62.7254 16.4609 62.5356C16.3571 62.3423 16.3052 62.1221 16.3052 61.875C16.3052 61.6315 16.3571 61.4023 16.4609 61.1875C16.5684 60.9727 16.7205 60.7829 16.9175 60.6182C17.118 60.4499 17.3615 60.3192 17.6479 60.2261C17.938 60.1294 18.2638 60.0811 18.6255 60.0811C19.1304 60.0811 19.5636 60.1616 19.9253 60.3228C20.2905 60.4839 20.5698 60.7059 20.7632 60.9888C20.9601 61.2681 21.0586 61.5868 21.0586 61.9448H19.5117C19.5117 61.7944 19.4795 61.6602 19.415 61.542C19.3542 61.4202 19.2575 61.3254 19.125 61.2573C18.9961 61.1857 18.8278 61.1499 18.6201 61.1499C18.4482 61.1499 18.2996 61.1803 18.1743 61.2412C18.049 61.2985 17.9523 61.3773 17.8843 61.4775C17.8198 61.5742 17.7876 61.6816 17.7876 61.7998C17.7876 61.8893 17.8055 61.9699 17.8413 62.0415C17.8807 62.1095 17.9434 62.1722 18.0293 62.2295C18.1152 62.2868 18.2262 62.3405 18.3623 62.3906C18.502 62.4372 18.6738 62.4801 18.8779 62.5195C19.2969 62.6055 19.6711 62.7183 20.0005 62.8579C20.3299 62.994 20.5913 63.1802 20.7847 63.4165C20.978 63.6493 21.0747 63.9554 21.0747 64.335C21.0747 64.5928 21.0174 64.8291 20.9028 65.0439C20.7882 65.2588 20.6235 65.4468 20.4087 65.6079C20.1938 65.7655 19.936 65.889 19.6353 65.9785C19.3381 66.0645 19.0033 66.1074 18.6309 66.1074C18.0902 66.1074 17.6318 66.0107 17.2559 65.8174C16.8835 65.624 16.6006 65.3787 16.4072 65.0815C16.2174 64.7808 16.1226 64.4728 16.1226 64.1577H17.5889C17.596 64.369 17.6497 64.5391 17.75 64.668C17.8538 64.7969 17.9845 64.89 18.1421 64.9473C18.3032 65.0046 18.4769 65.0332 18.6631 65.0332C18.8636 65.0332 19.0301 65.0063 19.1626 64.9526C19.2951 64.8953 19.3953 64.8201 19.4634 64.7271C19.535 64.6304 19.5708 64.5194 19.5708 64.394ZM23.7119 60.1885V66H22.1597V60.1885H23.7119ZM22.063 58.6738C22.063 58.4482 22.1418 58.262 22.2993 58.1152C22.4569 57.9684 22.6681 57.895 22.9331 57.895C23.1945 57.895 23.404 57.9684 23.5615 58.1152C23.7227 58.262 23.8032 58.4482 23.8032 58.6738C23.8032 58.8994 23.7227 59.0856 23.5615 59.2324C23.404 59.3792 23.1945 59.4526 22.9331 59.4526C22.6681 59.4526 22.4569 59.3792 22.2993 59.2324C22.1418 59.0856 22.063 58.8994 22.063 58.6738ZM24.7432 63.1533V63.0405C24.7432 62.6144 24.804 62.2223 24.9258 61.8643C25.0475 61.5026 25.2248 61.1893 25.4575 60.9243C25.6903 60.6593 25.9767 60.4535 26.3169 60.3066C26.6571 60.1562 27.0474 60.0811 27.4878 60.0811C27.9282 60.0811 28.3203 60.1562 28.6641 60.3066C29.0078 60.4535 29.2961 60.6593 29.5288 60.9243C29.7651 61.1893 29.9442 61.5026 30.0659 61.8643C30.1877 62.2223 30.2485 62.6144 30.2485 63.0405V63.1533C30.2485 63.5758 30.1877 63.9679 30.0659 64.3296C29.9442 64.6877 29.7651 65.001 29.5288 65.2695C29.2961 65.5345 29.0096 65.7404 28.6694 65.8872C28.3293 66.034 27.939 66.1074 27.4985 66.1074C27.0581 66.1074 26.666 66.034 26.3223 65.8872C25.9821 65.7404 25.6938 65.5345 25.4575 65.2695C25.2248 65.001 25.0475 64.6877 24.9258 64.3296C24.804 63.9679 24.7432 63.5758 24.7432 63.1533ZM26.29 63.0405V63.1533C26.29 63.3968 26.3115 63.6242 26.3545 63.8354C26.3975 64.0467 26.4655 64.2329 26.5586 64.394C26.6553 64.5516 26.7806 64.6751 26.9346 64.7646C27.0885 64.8542 27.2765 64.8989 27.4985 64.8989C27.7134 64.8989 27.8978 64.8542 28.0518 64.7646C28.2057 64.6751 28.3293 64.5516 28.4224 64.394C28.5155 64.2329 28.5835 64.0467 28.6265 63.8354C28.673 63.6242 28.6963 63.3968 28.6963 63.1533V63.0405C28.6963 62.8042 28.673 62.5822 28.6265 62.3745C28.5835 62.1632 28.5137 61.9771 28.417 61.8159C28.3239 61.6512 28.2004 61.5223 28.0464 61.4292C27.8924 61.3361 27.7062 61.2896 27.4878 61.2896C27.2694 61.2896 27.0832 61.3361 26.9292 61.4292C26.7788 61.5223 26.6553 61.6512 26.5586 61.8159C26.4655 61.9771 26.3975 62.1632 26.3545 62.3745C26.3115 62.5822 26.29 62.8042 26.29 63.0405ZM26.7466 59.4043L27.7993 57.75H29.4805L28.0034 59.4043H26.7466ZM32.7139 61.4292V66H31.167V60.1885H32.6172L32.7139 61.4292ZM32.4883 62.8901H32.0693C32.0693 62.4604 32.1248 62.0737 32.2358 61.73C32.3468 61.3826 32.5026 61.0872 32.7031 60.8438C32.9036 60.5967 33.1418 60.4087 33.4175 60.2798C33.6968 60.1473 34.0083 60.0811 34.3521 60.0811C34.6242 60.0811 34.873 60.1204 35.0986 60.1992C35.3242 60.278 35.5176 60.4033 35.6787 60.5752C35.8434 60.7471 35.9688 60.9744 36.0547 61.2573C36.1442 61.5402 36.189 61.8857 36.189 62.2939V66H34.6313V62.2886C34.6313 62.0308 34.5955 61.8302 34.5239 61.687C34.4523 61.5438 34.3467 61.4435 34.207 61.3862C34.071 61.3254 33.9027 61.2949 33.7021 61.2949C33.4945 61.2949 33.3136 61.3361 33.1597 61.4185C33.0093 61.5008 32.884 61.6154 32.7837 61.7622C32.687 61.9054 32.6136 62.0737 32.5635 62.2671C32.5133 62.4604 32.4883 62.6681 32.4883 62.8901Z" fill="white"/>
</svg>
