<svg width="149" height="40" viewBox="0 0 149 40" fill="none" xmlns="http://www.w3.org/2000/svg">
<path d="M65.6094 25.3027C65.6094 24.8457 65.5391 24.4355 65.3984 24.0723C65.2695 23.6973 65.0234 23.3574 64.6602 23.0527C64.2969 22.7363 63.7871 22.4258 63.1309 22.1211C62.4746 21.8164 61.625 21.5 60.582 21.1719C59.4219 20.7969 58.3203 20.375 57.2773 19.9062C56.2461 19.4375 55.332 18.8926 54.5352 18.2715C53.75 17.6387 53.1289 16.9062 52.6719 16.0742C52.2266 15.2422 52.0039 14.2754 52.0039 13.1738C52.0039 12.1074 52.2383 11.1406 52.707 10.2734C53.1758 9.39453 53.832 8.64453 54.6758 8.02344C55.5195 7.39062 56.5156 6.9043 57.6641 6.56445C58.8242 6.22461 60.0957 6.05469 61.4785 6.05469C63.3652 6.05469 65.0117 6.39453 66.418 7.07422C67.8242 7.75391 68.9141 8.68555 69.6875 9.86914C70.4727 11.0527 70.8652 12.4062 70.8652 13.9297H65.627C65.627 13.1797 65.4688 12.5234 65.1523 11.9609C64.8477 11.3867 64.3789 10.9355 63.7461 10.6074C63.125 10.2793 62.3398 10.1152 61.3906 10.1152C60.4766 10.1152 59.7148 10.2559 59.1055 10.5371C58.4961 10.8066 58.0391 11.1758 57.7344 11.6445C57.4297 12.1016 57.2773 12.6172 57.2773 13.1914C57.2773 13.625 57.3828 14.0176 57.5938 14.3691C57.8164 14.7207 58.1445 15.0488 58.5781 15.3535C59.0117 15.6582 59.5449 15.9453 60.1777 16.2148C60.8105 16.4844 61.543 16.748 62.375 17.0059C63.7695 17.4277 64.9941 17.9023 66.0488 18.4297C67.1152 18.957 68.0059 19.5488 68.7207 20.2051C69.4355 20.8613 69.9746 21.6055 70.3379 22.4375C70.7012 23.2695 70.8828 24.2129 70.8828 25.2676C70.8828 26.3809 70.666 27.377 70.2324 28.2559C69.7988 29.1348 69.1719 29.8789 68.3516 30.4883C67.5312 31.0977 66.5527 31.5605 65.416 31.877C64.2793 32.1934 63.0078 32.3516 61.6016 32.3516C60.3359 32.3516 59.0879 32.1875 57.8574 31.8594C56.627 31.5195 55.5078 31.0098 54.5 30.3301C53.5039 29.6504 52.707 28.7832 52.1094 27.7285C51.5117 26.6738 51.2129 25.4258 51.2129 23.9844H56.5039C56.5039 24.7812 56.627 25.4551 56.873 26.0059C57.1191 26.5566 57.4648 27.002 57.9102 27.3418C58.3672 27.6816 58.9062 27.9277 59.5273 28.0801C60.1602 28.2324 60.8516 28.3086 61.6016 28.3086C62.5156 28.3086 63.2656 28.1797 63.8516 27.9219C64.4492 27.6641 64.8887 27.3066 65.1699 26.8496C65.4629 26.3926 65.6094 25.877 65.6094 25.3027ZM80.0762 6.40625V32H74.8203V6.40625H80.0762ZM92.873 32H87.3008L87.3359 27.8867H92.873C94.2559 27.8867 95.4219 27.5762 96.3711 26.9551C97.3203 26.3223 98.0352 25.4023 98.5156 24.1953C99.0078 22.9883 99.2539 21.5293 99.2539 19.8184V18.5703C99.2539 17.2578 99.1133 16.1035 98.832 15.1074C98.5625 14.1113 98.1582 13.2734 97.6191 12.5938C97.0801 11.9141 96.418 11.4043 95.6328 11.0645C94.8477 10.7129 93.9453 10.5371 92.9258 10.5371H87.1953V6.40625H92.9258C94.6367 6.40625 96.2012 6.69922 97.6191 7.28516C99.0488 7.85938 100.285 8.68555 101.328 9.76367C102.371 10.8418 103.174 12.1309 103.736 13.6309C104.311 15.1191 104.598 16.7773 104.598 18.6055V19.8184C104.598 21.6348 104.311 23.293 103.736 24.793C103.174 26.293 102.371 27.582 101.328 28.6602C100.297 29.7266 99.0605 30.5527 97.6191 31.1387C96.1895 31.7129 94.6074 32 92.873 32ZM90.2891 6.40625V32H85.0156V6.40625H90.2891ZM125.604 27.8867V32H111.98V27.8867H125.604ZM113.703 6.40625V32H108.43V6.40625H113.703ZM123.828 16.8301V20.8379H111.98V16.8301H123.828ZM125.586 6.40625V10.5371H111.98V6.40625H125.586ZM138.646 22.877H132.125V18.7637H138.646C139.654 18.7637 140.475 18.5996 141.107 18.2715C141.74 17.9316 142.203 17.4629 142.496 16.8652C142.789 16.2676 142.936 15.5938 142.936 14.8438C142.936 14.082 142.789 13.373 142.496 12.7168C142.203 12.0605 141.74 11.5332 141.107 11.1348C140.475 10.7363 139.654 10.5371 138.646 10.5371H133.953V32H128.68V6.40625H138.646C140.65 6.40625 142.367 6.76953 143.797 7.49609C145.238 8.21094 146.34 9.20117 147.102 10.4668C147.863 11.7324 148.244 13.1797 148.244 14.8086C148.244 16.4609 147.863 17.8906 147.102 19.0977C146.34 20.3047 145.238 21.2363 143.797 21.8926C142.367 22.5488 140.65 22.877 138.646 22.877Z" fill="white"/>
<path d="M33.3334 13.3333V33.3333C33.3334 35.1666 31.8334 36.6666 30.0001 36.6666H10.0001C8.16675 36.6666 6.66675 35.1666 6.66675 33.3333V13.3333C6.66675 10.2333 8.80008 7.64992 11.6667 6.89992V5.83325C11.6667 4.44992 12.7834 3.33325 14.1667 3.33325C15.5501 3.33325 16.6667 4.44992 16.6667 5.83325V6.66659H23.3334V5.83325C23.3334 4.44992 24.4501 3.33325 25.8334 3.33325C27.2167 3.33325 28.3334 4.44992 28.3334 5.83325V6.89992C31.2001 7.64992 33.3334 10.2333 33.3334 13.3333ZM10.0001 21.6666C10.0001 22.5833 10.7501 23.3333 11.6667 23.3333H26.6667V24.9999C26.6667 25.9166 27.4167 26.6666 28.3334 26.6666C29.2501 26.6666 30.0001 25.9166 30.0001 24.9999V21.6666C30.0001 20.7499 29.2501 19.9999 28.3334 19.9999H11.6667C10.7501 19.9999 10.0001 20.7499 10.0001 21.6666Z" fill="white"/>
</svg>
