<svg width="196" height="50" viewBox="0 0 196 50" fill="none" xmlns="http://www.w3.org/2000/svg">
<path d="M83.9141 32.0703C83.9141 31.4609 83.8203 30.9141 83.6328 30.4297C83.4609 29.9297 83.1328 29.4766 82.6484 29.0703C82.1641 28.6484 81.4844 28.2344 80.6094 27.8281C79.7344 27.4219 78.6016 27 77.2109 26.5625C75.6641 26.0625 74.1953 25.5 72.8047 24.875C71.4297 24.25 70.2109 23.5234 69.1484 22.6953C68.1016 21.8516 67.2734 20.875 66.6641 19.7656C66.0703 18.6562 65.7734 17.3672 65.7734 15.8984C65.7734 14.4766 66.0859 13.1875 66.7109 12.0312C67.3359 10.8594 68.2109 9.85937 69.3359 9.03125C70.4609 8.1875 71.7891 7.53906 73.3203 7.08594C74.8672 6.63281 76.5625 6.40625 78.4062 6.40625C80.9219 6.40625 83.1172 6.85938 84.9922 7.76562C86.8672 8.67188 88.3203 9.91406 89.3516 11.4922C90.3984 13.0703 90.9219 14.875 90.9219 16.9062H83.9375C83.9375 15.9062 83.7266 15.0312 83.3047 14.2812C82.8984 13.5156 82.2734 12.9141 81.4297 12.4766C80.6016 12.0391 79.5547 11.8203 78.2891 11.8203C77.0703 11.8203 76.0547 12.0078 75.2422 12.3828C74.4297 12.7422 73.8203 13.2344 73.4141 13.8594C73.0078 14.4688 72.8047 15.1562 72.8047 15.9219C72.8047 16.5 72.9453 17.0234 73.2266 17.4922C73.5234 17.9609 73.9609 18.3984 74.5391 18.8047C75.1172 19.2109 75.8281 19.5938 76.6719 19.9531C77.5156 20.3125 78.4922 20.6641 79.6016 21.0078C81.4609 21.5703 83.0938 22.2031 84.5 22.9062C85.9219 23.6094 87.1094 24.3984 88.0625 25.2734C89.0156 26.1484 89.7344 27.1406 90.2188 28.25C90.7031 29.3594 90.9453 30.6172 90.9453 32.0234C90.9453 33.5078 90.6562 34.8359 90.0781 36.0078C89.5 37.1797 88.6641 38.1719 87.5703 38.9844C86.4766 39.7969 85.1719 40.4141 83.6562 40.8359C82.1406 41.2578 80.4453 41.4688 78.5703 41.4688C76.8828 41.4688 75.2188 41.25 73.5781 40.8125C71.9375 40.3594 70.4453 39.6797 69.1016 38.7734C67.7734 37.8672 66.7109 36.7109 65.9141 35.3047C65.1172 33.8984 64.7188 32.2344 64.7188 30.3125H71.7734C71.7734 31.375 71.9375 32.2734 72.2656 33.0078C72.5938 33.7422 73.0547 34.3359 73.6484 34.7891C74.2578 35.2422 74.9766 35.5703 75.8047 35.7734C76.6484 35.9766 77.5703 36.0781 78.5703 36.0781C79.7891 36.0781 80.7891 35.9062 81.5703 35.5625C82.3672 35.2188 82.9531 34.7422 83.3281 34.1328C83.7188 33.5234 83.9141 32.8359 83.9141 32.0703ZM103.203 6.875V41H96.1953V6.875H103.203ZM120.266 41H112.836L112.883 35.5156H120.266C122.109 35.5156 123.664 35.1016 124.93 34.2734C126.195 33.4297 127.148 32.2031 127.789 30.5938C128.445 28.9844 128.773 27.0391 128.773 24.7578V23.0938C128.773 21.3438 128.586 19.8047 128.211 18.4766C127.852 17.1484 127.312 16.0312 126.594 15.125C125.875 14.2187 124.992 13.5391 123.945 13.0859C122.898 12.6172 121.695 12.3828 120.336 12.3828H112.695V6.875H120.336C122.617 6.875 124.703 7.26562 126.594 8.04688C128.5 8.8125 130.148 9.91406 131.539 11.3516C132.93 12.7891 134 14.5078 134.75 16.5078C135.516 18.4922 135.898 20.7031 135.898 23.1406V24.7578C135.898 27.1797 135.516 29.3906 134.75 31.3906C134 33.3906 132.93 35.1094 131.539 36.5469C130.164 37.9688 128.516 39.0703 126.594 39.8516C124.688 40.6172 122.578 41 120.266 41ZM116.82 6.875V41H109.789V6.875H116.82ZM163.906 35.5156V41H145.742V35.5156H163.906ZM148.039 6.875V41H141.008V6.875H148.039ZM161.539 20.7734V26.1172H145.742V20.7734H161.539ZM163.883 6.875V12.3828H145.742V6.875H163.883ZM181.297 28.8359H172.602V23.3516H181.297C182.641 23.3516 183.734 23.1328 184.578 22.6953C185.422 22.2422 186.039 21.6172 186.43 20.8203C186.82 20.0234 187.016 19.125 187.016 18.125C187.016 17.1094 186.82 16.1641 186.43 15.2891C186.039 14.4141 185.422 13.7109 184.578 13.1797C183.734 12.6484 182.641 12.3828 181.297 12.3828H175.039V41H168.008V6.875H181.297C183.969 6.875 186.258 7.35938 188.164 8.32812C190.086 9.28125 191.555 10.6016 192.57 12.2891C193.586 13.9766 194.094 15.9062 194.094 18.0781C194.094 20.2812 193.586 22.1875 192.57 23.7969C191.555 25.4062 190.086 26.6484 188.164 27.5234C186.258 28.3984 183.969 28.8359 181.297 28.8359Z" fill="#D32F2F"/>
<path d="M41.6666 16.667V41.667C41.6666 43.9587 39.7916 45.8337 37.4999 45.8337H12.4999C10.2083 45.8337 8.33325 43.9587 8.33325 41.667V16.667C8.33325 12.792 10.9999 9.56283 14.5833 8.62533V7.29199C14.5833 5.56283 15.9791 4.16699 17.7083 4.16699C19.4374 4.16699 20.8333 5.56283 20.8333 7.29199V8.33366H29.1666V7.29199C29.1666 5.56283 30.5624 4.16699 32.2916 4.16699C34.0208 4.16699 35.4166 5.56283 35.4166 7.29199V8.62533C38.9999 9.56283 41.6666 12.792 41.6666 16.667ZM12.4999 27.0837C12.4999 28.2295 13.4374 29.167 14.5833 29.167H33.3333V31.2503C33.3333 32.3962 34.2708 33.3337 35.4166 33.3337C36.5624 33.3337 37.4999 32.3962 37.4999 31.2503V27.0837C37.4999 25.9378 36.5624 25.0003 35.4166 25.0003H14.5833C13.4374 25.0003 12.4999 25.9378 12.4999 27.0837Z" fill="#D32F2F"/>
</svg>
