<svg width="28" height="32" viewBox="0 0 28 32" fill="none" xmlns="http://www.w3.org/2000/svg">
<path d="M21.2499 3.37498H16.6124C15.9999 1.68331 14.3958 0.458313 12.4999 0.458313C10.6041 0.458313 8.99992 1.68331 8.38742 3.37498H3.74992C2.14575 3.37498 0.833252 4.68748 0.833252 6.29165V28.1666C0.833252 29.7708 2.14575 31.0833 3.74992 31.0833H12.6603C11.7999 30.2521 11.0999 29.2604 10.5895 28.1666H3.74992V6.29165H6.66659V7.74998C6.66659 9.35415 7.97909 10.6666 9.58325 10.6666H15.4166C17.0208 10.6666 18.3333 9.35415 18.3333 7.74998V6.29165H21.2499V13.7C22.2853 13.8458 23.2624 14.1521 24.1666 14.575V6.29165C24.1666 4.68748 22.8541 3.37498 21.2499 3.37498ZM12.4999 6.29165C11.6978 6.29165 11.0416 5.6354 11.0416 4.83331C11.0416 4.03123 11.6978 3.37498 12.4999 3.37498C13.302 3.37498 13.9583 4.03123 13.9583 4.83331C13.9583 5.6354 13.302 6.29165 12.4999 6.29165ZM19.7916 16.5C15.7666 16.5 12.4999 19.7666 12.4999 23.7916C12.4999 27.8166 15.7666 31.0833 19.7916 31.0833C23.8166 31.0833 27.0833 27.8166 27.0833 23.7916C27.0833 19.7666 23.8166 16.5 19.7916 16.5ZM21.6728 26.7083L19.2666 24.3021C19.1353 24.1708 19.0478 23.9812 19.0478 23.7916V20.1604C19.0478 19.7521 19.3687 19.4312 19.777 19.4312C20.1853 19.4312 20.5062 19.7521 20.5062 20.1604V23.5L22.6937 25.6875C22.9853 25.9791 22.9853 26.4312 22.6937 26.7229C22.4166 27 21.9645 27 21.6728 26.7083Z" fill="black" fill-opacity="0.54"/>
</svg>
