<svg width="34" height="42" viewBox="0 0 34 42" fill="none" xmlns="http://www.w3.org/2000/svg">
<path d="M33.6666 12.667V37.667C33.6666 39.9587 31.7916 41.8337 29.4999 41.8337H4.49992C2.20825 41.8337 0.333252 39.9587 0.333252 37.667V12.667C0.333252 8.79199 2.99992 5.56283 6.58325 4.62533V3.29199C6.58325 1.56283 7.97908 0.166992 9.70825 0.166992C11.4374 0.166992 12.8333 1.56283 12.8333 3.29199V4.33366H21.1666V3.29199C21.1666 1.56283 22.5624 0.166992 24.2916 0.166992C26.0208 0.166992 27.4166 1.56283 27.4166 3.29199V4.62533C30.9999 5.56283 33.6666 8.79199 33.6666 12.667ZM4.49992 23.0837C4.49992 24.2295 5.43742 25.167 6.58325 25.167H25.3333V27.2503C25.3333 28.3962 26.2708 29.3337 27.4166 29.3337C28.5624 29.3337 29.4999 28.3962 29.4999 27.2503V23.0837C29.4999 21.9378 28.5624 21.0003 27.4166 21.0003H6.58325C5.43742 21.0003 4.49992 21.9378 4.49992 23.0837Z" fill="#D32F2F"/>
</svg>
