<svg width="31" height="31" viewBox="0 0 31 31" fill="none" xmlns="http://www.w3.org/2000/svg">
<path d="M15.5001 0.916992C7.45008 0.916992 0.916748 7.45033 0.916748 15.5003C0.916748 23.5503 7.45008 30.0837 15.5001 30.0837C23.5501 30.0837 30.0834 23.5503 30.0834 15.5003C30.0834 7.45033 23.5501 0.916992 15.5001 0.916992ZM8.20841 9.66699C8.20841 8.86491 8.86466 8.20866 9.66675 8.20866H16.9584C17.7605 8.20866 18.4167 8.86491 18.4167 9.66699C18.4167 10.4691 17.7605 11.1253 16.9584 11.1253H9.66675C8.86466 11.1253 8.20841 10.4691 8.20841 9.66699ZM8.20841 14.042C8.20841 13.2399 8.86466 12.5837 9.66675 12.5837H16.9584C17.7605 12.5837 18.4167 13.2399 18.4167 14.042C18.4167 14.8441 17.7605 15.5003 16.9584 15.5003H9.66675C8.86466 15.5003 8.20841 14.8441 8.20841 14.042ZM12.5834 18.417C12.5834 19.2191 11.9272 19.8753 11.1251 19.8753H9.66675C8.86466 19.8753 8.20841 19.2191 8.20841 18.417C8.20841 17.6149 8.86466 16.9587 9.66675 16.9587H11.1251C11.9272 16.9587 12.5834 17.6149 12.5834 18.417ZM24.673 18.592L19.5105 23.7545C18.9417 24.3232 18.023 24.3232 17.4542 23.7545L15.398 21.6982C14.8292 21.1295 14.8292 20.2107 15.398 19.642C15.9667 19.0732 16.8855 19.0732 17.4542 19.642L18.4897 20.6774L22.6167 16.5503C23.1855 15.9816 24.1042 15.9816 24.673 16.5503C25.2417 17.1045 25.2417 18.0232 24.673 18.592Z" fill="black" fill-opacity="0.54"/>
</svg>
