<svg width="31" height="31" viewBox="0 0 31 31" fill="none" xmlns="http://www.w3.org/2000/svg">
<path d="M15.5001 0.916504C7.45008 0.916504 0.916748 7.44984 0.916748 15.4998C0.916748 23.5498 7.45008 30.0832 15.5001 30.0832C23.5501 30.0832 30.0834 23.5498 30.0834 15.4998C30.0834 7.44984 23.5501 0.916504 15.5001 0.916504ZM8.20841 9.6665C8.20841 8.86442 8.86466 8.20817 9.66675 8.20817H16.9584C17.7605 8.20817 18.4167 8.86442 18.4167 9.6665C18.4167 10.4686 17.7605 11.1248 16.9584 11.1248H9.66675C8.86466 11.1248 8.20841 10.4686 8.20841 9.6665ZM8.20841 14.0415C8.20841 13.2394 8.86466 12.5832 9.66675 12.5832H16.9584C17.7605 12.5832 18.4167 13.2394 18.4167 14.0415C18.4167 14.8436 17.7605 15.4998 16.9584 15.4998H9.66675C8.86466 15.4998 8.20841 14.8436 8.20841 14.0415ZM12.5834 18.4165C12.5834 19.2186 11.9272 19.8748 11.1251 19.8748H9.66675C8.86466 19.8748 8.20841 19.2186 8.20841 18.4165C8.20841 17.6144 8.86466 16.9582 9.66675 16.9582H11.1251C11.9272 16.9582 12.5834 17.6144 12.5834 18.4165ZM24.673 18.5915L19.5105 23.754C18.9417 24.3228 18.023 24.3228 17.4542 23.754L15.398 21.6978C14.8292 21.129 14.8292 20.2103 15.398 19.6415C15.9667 19.0728 16.8855 19.0728 17.4542 19.6415L18.4897 20.6769L22.6167 16.5498C23.1855 15.9811 24.1042 15.9811 24.673 16.5498C25.2417 17.104 25.2417 18.0228 24.673 18.5915Z" fill="#D32F2F"/>
</svg>
