<svg width="28" height="32" viewBox="0 0 28 32" fill="none" xmlns="http://www.w3.org/2000/svg">
<path d="M21.2499 3.37504H16.6124C15.9999 1.68337 14.3958 0.458374 12.4999 0.458374C10.6041 0.458374 8.99992 1.68337 8.38742 3.37504H3.74992C2.14575 3.37504 0.833252 4.68754 0.833252 6.29171V28.1667C0.833252 29.7709 2.14575 31.0834 3.74992 31.0834H12.6603C11.7999 30.2521 11.0999 29.2605 10.5895 28.1667H3.74992V6.29171H6.66659V7.75004C6.66659 9.35421 7.97909 10.6667 9.58325 10.6667H15.4166C17.0208 10.6667 18.3333 9.35421 18.3333 7.75004V6.29171H21.2499V13.7C22.2853 13.8459 23.2624 14.1521 24.1666 14.575V6.29171C24.1666 4.68754 22.8541 3.37504 21.2499 3.37504ZM12.4999 6.29171C11.6978 6.29171 11.0416 5.63546 11.0416 4.83337C11.0416 4.03129 11.6978 3.37504 12.4999 3.37504C13.302 3.37504 13.9583 4.03129 13.9583 4.83337C13.9583 5.63546 13.302 6.29171 12.4999 6.29171ZM19.7916 16.5C15.7666 16.5 12.4999 19.7667 12.4999 23.7917C12.4999 27.8167 15.7666 31.0834 19.7916 31.0834C23.8166 31.0834 27.0833 27.8167 27.0833 23.7917C27.0833 19.7667 23.8166 16.5 19.7916 16.5ZM21.6728 26.7084L19.2666 24.3021C19.1353 24.1709 19.0478 23.9813 19.0478 23.7917V20.1605C19.0478 19.7521 19.3687 19.4313 19.777 19.4313C20.1853 19.4313 20.5062 19.7521 20.5062 20.1605V23.5L22.6937 25.6875C22.9853 25.9792 22.9853 26.4313 22.6937 26.723C22.4166 27 21.9645 27 21.6728 26.7084Z" fill="#D32F2F"/>
</svg>
