<svg width="30" height="28" viewBox="0 0 30 28" fill="none" xmlns="http://www.w3.org/2000/svg">
<path d="M28.3333 18.9998H1.66667C0.75 18.9998 0 19.7498 0 20.6665C0 21.5832 0.75 22.3332 1.66667 22.3332H28.3333C29.25 22.3332 30 21.5832 30 20.6665C30 19.7498 29.25 18.9998 28.3333 18.9998ZM28.3333 10.6665H1.66667C0.75 10.6665 0 11.4165 0 12.3332V13.9998C0 14.9165 0.75 15.6665 1.66667 15.6665H28.3333C29.25 15.6665 30 14.9165 30 13.9998V12.3332C30 11.4165 29.25 10.6665 28.3333 10.6665ZM28.3333 0.666504H1.66667C0.75 0.666504 0 1.4165 0 2.33317V5.6665C0 6.58317 0.75 7.33317 1.66667 7.33317H28.3333C29.25 7.33317 30 6.58317 30 5.6665V2.33317C30 1.4165 29.25 0.666504 28.3333 0.666504ZM29.1667 25.6665H0.833333C0.366667 25.6665 0 26.0332 0 26.4998C0 26.9665 0.366667 27.3332 0.833333 27.3332H29.1667C29.6333 27.3332 30 26.9665 30 26.4998C30 26.0332 29.6333 25.6665 29.1667 25.6665Z" fill="#D32F2F"/>
</svg>
