<svg width="42" height="42" viewBox="0 0 42 42" fill="none" xmlns="http://www.w3.org/2000/svg">
<path d="M20.9792 0.166504C9.47917 0.166504 0.166672 9.49984 0.166672 20.9998C0.166672 32.4998 9.47917 41.8332 20.9792 41.8332C32.5 41.8332 41.8333 32.4998 41.8333 20.9998C41.8333 9.49984 32.5 0.166504 20.9792 0.166504ZM21 37.6665C11.7917 37.6665 4.33334 30.2082 4.33334 20.9998C4.33334 11.7915 11.7917 4.33317 21 4.33317C30.2083 4.33317 37.6667 11.7915 37.6667 20.9998C37.6667 30.2082 30.2083 37.6665 21 37.6665ZM20.5417 10.5832H20.4167C19.5833 10.5832 18.9167 11.2498 18.9167 12.0832V21.9165C18.9167 22.6457 19.2917 23.3332 19.9375 23.7082L28.5833 28.8957C29.2917 29.3123 30.2083 29.104 30.625 28.3957C31.0625 27.6873 30.8333 26.7498 30.1042 26.3332L22.0417 21.5415V12.0832C22.0417 11.2498 21.375 10.5832 20.5417 10.5832Z" fill="#D32F2F"/>
</svg>
